# xmcd CD database file
#
# Track frame offsets:
#	150
#	15427
#	29695
#	46330
#	57147
#	73256
#	89388
#	104807
#	121798
#	139730
#	157411
#	177281
#	195056
#	211358
#	228326
#	243317
#
# Disc length: 3477 seconds
#
# Revision: 0
# Processed by: cddbd v1.5.2PL0 Copyright (c) Steve Scherf et al.
# Submitted via: CDex 1.51
#
DISCID=de0d9310
DTITLE=Nashville Voices - Walking in Memphis
DYEAR=2006
DGENRE=Country
TTITLE0=Passionate Kisses
TTITLE1=The Way You Love Me
TTITLE2=Days Go By
TTITLE3=Crazy Little Thing Called Love
TTITLE4=Can't Fight The Moonlight
TTITLE5=Redneck Woman
TTITLE6=The Shake
TTITLE7=It's Five O'Clock Somewhere
TTITLE8=Blessed
TTITLE9=I Hope You Dance
TTITLE10=Letters From Home
TTITLE11=I Love This Bar
TTITLE12=You're Still The One
TTITLE13=Landslide
TTITLE14=The Best Day
TTITLE15=Walking In Memphis
EXTD=YEAR: 2006
EXTT0=
EXTT1=
EXTT2=
EXTT3=
EXTT4=
EXTT5=
EXTT6=
EXTT7=
EXTT8=
EXTT9=
EXTT10=
EXTT11=
EXTT12=
EXTT13=
EXTT14=
EXTT15=
PLAYORDER=
